# xmcd CD database file
#
# Track frame offsets:
#	150
#	32452
#	51737
#	71800
#	92347
#	117585
#	137427
#	152977
#	168362
#	190412
#	208922
#
# Disc length: 3096 seconds
#
# Revision: 0
# Processed by: cddbd v1.5.1PL0 Copyright (c) Steve Scherf et al.
# Submitted via: CDex 1.51
#
DISCID=a10c160b
DTITLE=泉谷しげる - オールナイト・ライヴ
DYEAR=1980
DGENRE=New Age
TTITLE0=翼なき野郎ども
TTITLE1=デトロイト・ポーカー
TTITLE2=俺の女
TTITLE3=つなひき
TTITLE4=遥かなる人
TTITLE5=摩天楼
TTITLE6=火の鳥
TTITLE7=眠れない夜
TTITLE8=陽が沈むころに
TTITLE9=褐色のセールスマン
TTITLE10=裸の街
EXTD=YEAR: 1980
EXTT0=
EXTT1=
EXTT2=
EXTT3=
EXTT4=
EXTT5=
EXTT6=
EXTT7=
EXTT8=
EXTT9=
EXTT10=
PLAYORDER=
